# xmcd
#
# Track frame offsets:
#	150
#	19936
#	33770
#	51668
#	68420
#	87918
#	102099
#	114805
#	127350
#	139202
#	152701
#	167713
#
# Disc length: 2427 seconds
#
# Revision: 0
# Processed by: cddbd v1.4PL0 Copyright (c) Steve Scherf et al.
# Submitted via: dBpowerAMP V4.0
#
DISCID=9d09790c
DTITLE=Gary Allan - Smoke Rings In The Dark
DYEAR=1900
DGENRE=Country
TTITLE0=Smoke Rings In The Dark
TTITLE1=Right Where I Need To Be
TTITLE2=Don't Tell Mama
TTITLE3=Lovin' You Against My Will
TTITLE4=Sorry
TTITLE5=Cryin' For Nothin'
TTITLE6=Bourbon Borderline
TTITLE7=Runaway
TTITLE8=Learning To Live With Me
TTITLE9=Cowboy Blues
TTITLE10=I'm The One
TTITLE11=Greenfields
EXTD=
EXTT0=
EXTT1=
EXTT2=
EXTT3=
EXTT4=
EXTT5=
EXTT6=
EXTT7=
EXTT8=
EXTT9=
EXTT10=
EXTT11=
PLAYORDER=
